<mxfile host="app.diagrams.net" agent="Mozilla/5.0 (X11; Linux x86_64; rv:128.0) Gecko/20100101 Firefox/128.0" version="26.0.7">
  <diagram name="Page-1" id="jzw5WTR2NERdWGnIvId5">
    <mxGraphModel dx="911" dy="1008" grid="1" gridSize="10" guides="1" tooltips="1" connect="1" arrows="1" fold="1" page="0" pageScale="1" pageWidth="850" pageHeight="1100" background="#ffffff" math="0" shadow="0">
      <root>
        <mxCell id="0" />
        <mxCell id="1" parent="0" />
        <mxCell id="QhfKAPlDiAFCTURe2MWs-24" style="edgeStyle=none;curved=1;rounded=0;orthogonalLoop=1;jettySize=auto;html=1;exitX=0.5;exitY=1;exitDx=0;exitDy=0;entryX=0.5;entryY=0;entryDx=0;entryDy=0;fontSize=12;startSize=8;endSize=8;endArrow=none;startFill=0;endFill=1;" edge="1" parent="1" source="QhfKAPlDiAFCTURe2MWs-20" target="QhfKAPlDiAFCTURe2MWs-22">
          <mxGeometry relative="1" as="geometry" />
        </mxCell>
        <mxCell id="QhfKAPlDiAFCTURe2MWs-25" style="edgeStyle=none;curved=1;rounded=0;orthogonalLoop=1;jettySize=auto;html=1;exitX=0.75;exitY=1;exitDx=0;exitDy=0;entryX=0.5;entryY=0;entryDx=0;entryDy=0;fontSize=12;startSize=8;endSize=8;endArrow=none;startFill=0;endFill=1;" edge="1" parent="1" source="QhfKAPlDiAFCTURe2MWs-20" target="QhfKAPlDiAFCTURe2MWs-23">
          <mxGeometry relative="1" as="geometry" />
        </mxCell>
        <mxCell id="QhfKAPlDiAFCTURe2MWs-26" style="edgeStyle=none;curved=1;rounded=0;orthogonalLoop=1;jettySize=auto;html=1;exitX=0.25;exitY=1;exitDx=0;exitDy=0;entryX=0.5;entryY=0;entryDx=0;entryDy=0;fontSize=12;startSize=8;endSize=8;endArrow=none;startFill=0;endFill=1;" edge="1" parent="1" source="QhfKAPlDiAFCTURe2MWs-20" target="QhfKAPlDiAFCTURe2MWs-21">
          <mxGeometry relative="1" as="geometry" />
        </mxCell>
        <mxCell id="QhfKAPlDiAFCTURe2MWs-28" style="edgeStyle=none;curved=1;rounded=0;orthogonalLoop=1;jettySize=auto;html=1;exitX=1;exitY=0.5;exitDx=0;exitDy=0;entryX=0;entryY=0.5;entryDx=0;entryDy=0;fontSize=12;startSize=8;endSize=8;endArrow=none;startFill=0;" edge="1" parent="1" source="QhfKAPlDiAFCTURe2MWs-20" target="QhfKAPlDiAFCTURe2MWs-27">
          <mxGeometry relative="1" as="geometry" />
        </mxCell>
        <mxCell id="QhfKAPlDiAFCTURe2MWs-51" style="edgeStyle=none;curved=1;rounded=0;orthogonalLoop=1;jettySize=auto;html=1;exitX=0.5;exitY=0;exitDx=0;exitDy=0;entryX=0.5;entryY=1;entryDx=0;entryDy=0;fontSize=12;startSize=8;endSize=8;endArrow=none;startFill=0;" edge="1" parent="1" source="QhfKAPlDiAFCTURe2MWs-20" target="QhfKAPlDiAFCTURe2MWs-48">
          <mxGeometry relative="1" as="geometry" />
        </mxCell>
        <mxCell id="QhfKAPlDiAFCTURe2MWs-20" value="Departamento" style="rounded=0;whiteSpace=wrap;html=1;fillColor=#d5e8d4;strokeColor=#82b366;" vertex="1" parent="1">
          <mxGeometry x="50" y="210" width="120" height="60" as="geometry" />
        </mxCell>
        <mxCell id="QhfKAPlDiAFCTURe2MWs-21" value="numero" style="ellipse;whiteSpace=wrap;html=1;fontStyle=4;fillColor=#dae8fc;strokeColor=#6c8ebf;" vertex="1" parent="1">
          <mxGeometry y="290" width="80" height="40" as="geometry" />
        </mxCell>
        <mxCell id="QhfKAPlDiAFCTURe2MWs-22" value="nombre" style="ellipse;whiteSpace=wrap;html=1;" vertex="1" parent="1">
          <mxGeometry x="70" y="310" width="80" height="40" as="geometry" />
        </mxCell>
        <mxCell id="QhfKAPlDiAFCTURe2MWs-23" value="localidad" style="ellipse;whiteSpace=wrap;html=1;" vertex="1" parent="1">
          <mxGeometry x="140" y="290" width="70" height="40" as="geometry" />
        </mxCell>
        <mxCell id="QhfKAPlDiAFCTURe2MWs-27" value="trabajar" style="rhombus;whiteSpace=wrap;html=1;fillColor=#fff2cc;strokeColor=#d6b656;" vertex="1" parent="1">
          <mxGeometry x="270" y="200" width="80" height="80" as="geometry" />
        </mxCell>
        <mxCell id="QhfKAPlDiAFCTURe2MWs-36" style="edgeStyle=none;curved=1;rounded=0;orthogonalLoop=1;jettySize=auto;html=1;exitX=0.5;exitY=1;exitDx=0;exitDy=0;entryX=0.5;entryY=0;entryDx=0;entryDy=0;fontSize=12;startSize=8;endSize=8;endArrow=none;startFill=0;" edge="1" parent="1" source="QhfKAPlDiAFCTURe2MWs-29" target="QhfKAPlDiAFCTURe2MWs-31">
          <mxGeometry relative="1" as="geometry" />
        </mxCell>
        <mxCell id="QhfKAPlDiAFCTURe2MWs-37" style="edgeStyle=none;curved=1;rounded=0;orthogonalLoop=1;jettySize=auto;html=1;exitX=0.25;exitY=1;exitDx=0;exitDy=0;entryX=0.5;entryY=0;entryDx=0;entryDy=0;fontSize=12;startSize=8;endSize=8;endArrow=none;startFill=0;" edge="1" parent="1" source="QhfKAPlDiAFCTURe2MWs-29" target="QhfKAPlDiAFCTURe2MWs-30">
          <mxGeometry relative="1" as="geometry" />
        </mxCell>
        <mxCell id="QhfKAPlDiAFCTURe2MWs-38" style="edgeStyle=none;curved=1;rounded=0;orthogonalLoop=1;jettySize=auto;html=1;exitX=0.75;exitY=1;exitDx=0;exitDy=0;entryX=0.5;entryY=0;entryDx=0;entryDy=0;fontSize=12;startSize=8;endSize=8;endArrow=none;startFill=0;" edge="1" parent="1" source="QhfKAPlDiAFCTURe2MWs-29" target="QhfKAPlDiAFCTURe2MWs-32">
          <mxGeometry relative="1" as="geometry" />
        </mxCell>
        <mxCell id="QhfKAPlDiAFCTURe2MWs-39" style="edgeStyle=none;curved=1;rounded=0;orthogonalLoop=1;jettySize=auto;html=1;exitX=0;exitY=0.5;exitDx=0;exitDy=0;entryX=1;entryY=0.5;entryDx=0;entryDy=0;fontSize=12;startSize=8;endSize=8;endArrow=none;startFill=0;" edge="1" parent="1" source="QhfKAPlDiAFCTURe2MWs-29" target="QhfKAPlDiAFCTURe2MWs-27">
          <mxGeometry relative="1" as="geometry" />
        </mxCell>
        <mxCell id="QhfKAPlDiAFCTURe2MWs-44" style="edgeStyle=none;curved=1;rounded=0;orthogonalLoop=1;jettySize=auto;html=1;exitX=0.5;exitY=0;exitDx=0;exitDy=0;entryX=0.5;entryY=1;entryDx=0;entryDy=0;fontSize=12;startSize=8;endSize=8;endArrow=none;startFill=0;" edge="1" parent="1" source="QhfKAPlDiAFCTURe2MWs-29" target="QhfKAPlDiAFCTURe2MWs-43">
          <mxGeometry relative="1" as="geometry" />
        </mxCell>
        <mxCell id="QhfKAPlDiAFCTURe2MWs-29" value="Empleado" style="rounded=0;whiteSpace=wrap;html=1;fillColor=#d5e8d4;strokeColor=#82b366;" vertex="1" parent="1">
          <mxGeometry x="450" y="210" width="120" height="60" as="geometry" />
        </mxCell>
        <mxCell id="QhfKAPlDiAFCTURe2MWs-30" value="numero" style="ellipse;whiteSpace=wrap;html=1;fontStyle=4;fillColor=#dae8fc;strokeColor=#6c8ebf;" vertex="1" parent="1">
          <mxGeometry x="400" y="290" width="80" height="40" as="geometry" />
        </mxCell>
        <mxCell id="QhfKAPlDiAFCTURe2MWs-31" value="apellido" style="ellipse;whiteSpace=wrap;html=1;" vertex="1" parent="1">
          <mxGeometry x="470" y="310" width="80" height="40" as="geometry" />
        </mxCell>
        <mxCell id="QhfKAPlDiAFCTURe2MWs-32" value="salario" style="ellipse;whiteSpace=wrap;html=1;" vertex="1" parent="1">
          <mxGeometry x="540" y="290" width="70" height="40" as="geometry" />
        </mxCell>
        <mxCell id="QhfKAPlDiAFCTURe2MWs-40" value="(0:N)" style="text;html=1;align=center;verticalAlign=middle;resizable=0;points=[];autosize=1;strokeColor=none;fillColor=none;fontSize=16;" vertex="1" parent="1">
          <mxGeometry x="390" y="210" width="60" height="30" as="geometry" />
        </mxCell>
        <mxCell id="QhfKAPlDiAFCTURe2MWs-41" value="(1:1)" style="text;html=1;align=center;verticalAlign=middle;resizable=0;points=[];autosize=1;strokeColor=none;fillColor=none;fontSize=16;" vertex="1" parent="1">
          <mxGeometry x="170" y="210" width="60" height="30" as="geometry" />
        </mxCell>
        <mxCell id="QhfKAPlDiAFCTURe2MWs-42" value="1:N" style="text;html=1;align=center;verticalAlign=middle;resizable=0;points=[];autosize=1;strokeColor=none;fillColor=none;fontSize=16;fontStyle=1" vertex="1" parent="1">
          <mxGeometry x="285" y="170" width="50" height="30" as="geometry" />
        </mxCell>
        <mxCell id="QhfKAPlDiAFCTURe2MWs-45" style="edgeStyle=orthogonalEdgeStyle;rounded=0;orthogonalLoop=1;jettySize=auto;html=1;exitX=1;exitY=0.5;exitDx=0;exitDy=0;entryX=1;entryY=0.5;entryDx=0;entryDy=0;fontSize=12;startSize=8;endSize=8;endArrow=none;startFill=0;" edge="1" parent="1" source="QhfKAPlDiAFCTURe2MWs-43" target="QhfKAPlDiAFCTURe2MWs-29">
          <mxGeometry relative="1" as="geometry" />
        </mxCell>
        <mxCell id="QhfKAPlDiAFCTURe2MWs-43" value="es jefe" style="rhombus;whiteSpace=wrap;html=1;fillColor=#fff2cc;strokeColor=#d6b656;" vertex="1" parent="1">
          <mxGeometry x="470" y="30" width="80" height="80" as="geometry" />
        </mxCell>
        <mxCell id="QhfKAPlDiAFCTURe2MWs-48" value="&lt;div&gt;estÃ¡&lt;/div&gt;&lt;div&gt;compuesta&lt;/div&gt;&lt;div&gt;&lt;br&gt;&lt;/div&gt;" style="rhombus;whiteSpace=wrap;html=1;fillColor=#fff2cc;strokeColor=#d6b656;" vertex="1" parent="1">
          <mxGeometry x="70" y="30" width="80" height="80" as="geometry" />
        </mxCell>
        <mxCell id="QhfKAPlDiAFCTURe2MWs-50" style="edgeStyle=none;curved=1;rounded=0;orthogonalLoop=1;jettySize=auto;html=1;exitX=0;exitY=0.5;exitDx=0;exitDy=0;entryX=1;entryY=0.5;entryDx=0;entryDy=0;fontSize=12;startSize=8;endSize=8;endArrow=none;startFill=0;" edge="1" parent="1" source="QhfKAPlDiAFCTURe2MWs-49" target="QhfKAPlDiAFCTURe2MWs-48">
          <mxGeometry relative="1" as="geometry" />
        </mxCell>
        <mxCell id="QhfKAPlDiAFCTURe2MWs-49" value="Empresa" style="rounded=0;whiteSpace=wrap;html=1;fillColor=#d5e8d4;strokeColor=#82b366;" vertex="1" parent="1">
          <mxGeometry x="250" y="40" width="120" height="60" as="geometry" />
        </mxCell>
        <mxCell id="QhfKAPlDiAFCTURe2MWs-52" value="1:N" style="text;html=1;align=center;verticalAlign=middle;resizable=0;points=[];autosize=1;strokeColor=none;fillColor=none;fontSize=16;fontStyle=1" vertex="1" parent="1">
          <mxGeometry x="85" width="50" height="30" as="geometry" />
        </mxCell>
        <mxCell id="QhfKAPlDiAFCTURe2MWs-53" value="(1:1)" style="text;html=1;align=center;verticalAlign=middle;resizable=0;points=[];autosize=1;strokeColor=none;fillColor=none;fontSize=16;" vertex="1" parent="1">
          <mxGeometry x="190" y="40" width="60" height="30" as="geometry" />
        </mxCell>
        <mxCell id="QhfKAPlDiAFCTURe2MWs-54" value="(1:N)" style="text;html=1;align=center;verticalAlign=middle;resizable=0;points=[];autosize=1;strokeColor=none;fillColor=none;fontSize=16;" vertex="1" parent="1">
          <mxGeometry x="50" y="180" width="60" height="30" as="geometry" />
        </mxCell>
        <mxCell id="QhfKAPlDiAFCTURe2MWs-55" value="(1:1)" style="text;html=1;align=center;verticalAlign=middle;resizable=0;points=[];autosize=1;strokeColor=none;fillColor=none;fontSize=16;" vertex="1" parent="1">
          <mxGeometry x="450" y="130" width="60" height="30" as="geometry" />
        </mxCell>
        <mxCell id="QhfKAPlDiAFCTURe2MWs-56" value="(1:N)" style="text;html=1;align=center;verticalAlign=middle;resizable=0;points=[];autosize=1;strokeColor=none;fillColor=none;fontSize=16;" vertex="1" parent="1">
          <mxGeometry x="590" y="130" width="60" height="30" as="geometry" />
        </mxCell>
        <mxCell id="QhfKAPlDiAFCTURe2MWs-57" value="1:N" style="text;html=1;align=center;verticalAlign=middle;resizable=0;points=[];autosize=1;strokeColor=none;fillColor=none;fontSize=16;fontStyle=1" vertex="1" parent="1">
          <mxGeometry x="485" width="50" height="30" as="geometry" />
        </mxCell>
      </root>
    </mxGraphModel>
  </diagram>
</mxfile>
